<svg width="163" height="40" viewBox="0 0 163 40" fill="none" xmlns="http://www.w3.org/2000/svg">
<path style="fill:#ffffff; stroke:none;" d="M0 0L0 4501L4500 4501L4500 0L0 0z"/>
<path style="fill:#2ecc29; stroke:none;" d="M2216 906.424C2162.76 913.417 2105.75 909.938 2054 927.356C2027.06 936.422 2013.76 968.327 2026.26 994C2047.75 1038.13 2104.3 1014.24 2141 1009.13C2249.1 994.069 2358.38 1002.63 2464 1029.37C2743.32 1100.11 2972.92 1332 3047.85 1609C3126.6 1900.13 3038.29 2215.23 2820 2423.96C2774.8 2467.18 2724.14 2506.16 2670 2537.58C2650.97 2548.62 2631.67 2558.92 2612 2568.75C2601.55 2573.98 2589.41 2577.78 2580 2584.76C2543.56 2611.82 2562 2666.64 2605 2671.71C2624.18 2673.98 2644.58 2660.46 2661 2652.25C2704.92 2630.29 2746.99 2605.22 2787 2576.71C2958.95 2454.18 3088.29 2270.84 3141.63 2066C3169.58 1958.67 3179.51 1847.38 3168.83 1737C3141.97 1459.46 2984.89 1200.75 2749 1051.05C2670.02 1000.94 2584.34 962.315 2494 937.849C2428.59 920.134 2361.59 909.918 2294 906.961C2268.77 905.857 2241.14 903.122 2216 906.424M1828 1011.46C1816.08 1013.57 1805.35 1020.66 1795 1026.58C1776.98 1036.89 1759.28 1047.82 1742 1059.33C1666.69 1109.54 1599.46 1170.46 1541.59 1240C1322.02 1503.82 1271.27 1881.13 1407.42 2195C1438.34 2266.26 1478.73 2334.12 1527 2395C1621.29 2513.9 1743.19 2610.8 1883 2670.85C1912.54 2683.54 1942.5 2694.54 1973 2704.67C1989.36 2710.1 2008.14 2716.22 2025 2709.12C2059.72 2694.51 2065.4 2644.83 2033 2624.09C2015.58 2612.94 1991.34 2609.81 1972 2602.58C1930.72 2587.14 1890.4 2569.27 1852 2547.58C1696.92 2459.96 1568.68 2321.78 1497.42 2158C1454.26 2058.78 1431.76 1954.83 1427.04 1847C1418.3 1647.51 1495.57 1442.94 1624.27 1292C1670.14 1238.2 1723.05 1190.22 1781 1149.72C1808 1130.85 1838.24 1116.66 1865 1097.79C1906.04 1068.86 1876.59 1002.87 1828 1011.46M2240 1109.42C2219.33 1112.14 2197.85 1111.08 2177 1113.17C2129.56 1117.91 2082.51 1127.88 2037 1142.03C1837.27 1204.1 1673.67 1355.5 1591.28 1547C1544.24 1656.34 1524.19 1782.7 1538.72 1901C1543.86 1942.88 1543.38 2017.34 1604 2010.83C1626.95 2008.36 1642.07 1988.79 1644.71 1967C1646.2 1954.72 1641.26 1941.07 1639.25 1929C1635.55 1906.81 1632.94 1884.44 1631.96 1862C1624.88 1700.42 1676.61 1542.83 1783.28 1420C1891.27 1295.66 2051.44 1213.28 2217 1206.04C2266.6 1203.87 2316.08 1206.45 2365 1215.61C2391.08 1220.5 2422.65 1235.29 2448 1221.68C2482.46 1203.17 2478.25 1151.42 2444 1135.79C2425.89 1127.53 2403.45 1125.03 2384 1121.39C2347.14 1114.49 2309.47 1110.18 2272 1110C2261.32 1109.95 2250.73 1108.02 2240 1109.42M2239 1356.42C2222.82 1358.55 2206.29 1358.14 2190 1360.28C2156.95 1364.63 2124.4 1372.52 2093 1383.69C1951.37 1434.09 1840.57 1553.66 1799.43 1698C1775.11 1783.32 1775.18 1878.15 1801.66 1963C1812.05 1996.29 1824.75 2045.63 1870 2038.56C1894.69 2034.7 1913.28 2012.34 1910.83 1987C1909.58 1974.04 1903.01 1962.12 1898.69 1950C1892.2 1931.77 1887.47 1912.98 1883.8 1894C1870.47 1824.86 1878.93 1752.17 1905 1687C1947.04 1581.9 2037.46 1501.45 2145 1468.03C2170.44 1460.12 2197.42 1454.91 2224 1453.09C2244.24 1451.7 2266.02 1454.99 2283 1441.48C2307.11 1422.28 2304.66 1383.76 2281 1365.53C2269.45 1356.63 2253.13 1354.57 2239 1356.42M2891 1590.43C2869.06 1593.31 2848.82 1608.37 2847.09 1632C2845.52 1653.41 2855.02 1675.25 2859.58 1696C2866.24 1726.36 2869.97 1757.07 2872.09 1788C2883.73 1958.07 2820.93 2127.45 2704.91 2252C2678.85 2279.97 2649.59 2304.78 2619 2327.63C2604.36 2338.56 2584.33 2347.25 2572.3 2361.01C2548.34 2388.43 2563.3 2438.07 2602 2440.91C2625.69 2442.65 2643.55 2429.02 2662 2415.86C2696.38 2391.33 2729.11 2364.89 2759 2335C2891.37 2202.63 2969 2020.49 2969 1833C2969 1769.18 2961.88 1707.02 2946.37 1645C2939.55 1617.7 2925.45 1585.9 2891 1590.43M2202 3282C2122.42 3282 2039.61 3265.9 1963 3245.15C1651.53 3160.79 1389.43 2938.42 1251.78 2647C1184.09 2503.7 1149 2344.22 1149 2186L1149 2154C1149 2122.01 1156.1 2075.13 1114 2066.01C1108.49 2064.82 1102.62 2064.68 1097 2065.09C1076.5 2066.59 1059.61 2084.3 1056.29 2104C1052.95 2123.79 1054 2144.96 1054 2165C1054 2195.09 1053.86 2225.03 1055.91 2255C1069.48 2453.09 1128.13 2644.94 1233.43 2814C1298.12 2917.88 1378.86 3012.22 1472 3091.57C1771.87 3347.06 2189.08 3441.21 2569 3335.58C2944.06 3231.3 3248.88 2945.51 3379.31 2579C3423.55 2454.67 3446 2321.73 3446 2190L3446 2166C3446 2128.72 3450.95 2064.03 3397 2064.03C3375.97 2064.03 3355.84 2078.35 3350.67 2099C3347.8 2110.43 3349.7 2121.48 3349.99 2133C3350.48 2153.34 3351 2173.61 3351 2194C3351 2348.63 3315.21 2508.57 3247.74 2648C3215.14 2715.38 3177.61 2780.02 3132.62 2840C2985.3 3036.43 2774.06 3180.94 2537 3245.15C2460.39 3265.9 2377.58 3282 2298 3282L2298 2126L2298 1855C2298 1825.95 2300.38 1789.97 2266 1779.03C2261.01 1777.44 2255.26 1776.18 2250 1776.18C2244.74 1776.18 2238.99 1777.44 2234 1779.03C2199.62 1789.97 2202 1825.95 2202 1855L2202 2126L2202 3282M1924 1880L1925 1881L1924 1880M879 2134.43C857.47 2137.52 840.426 2153.12 837.3 2175C834.989 2191.18 837.251 2208.79 837.961 2225C839.411 2258.12 841.717 2290.93 843.975 2324C847.955 2382.28 859.299 2441.14 872.349 2498C903.885 2635.42 955.632 2768.02 1026.42 2890C1091.81 3002.65 1172.8 3107.88 1267 3197.96C1545.27 3464.05 1923.8 3610.83 2309 3593.96C2479.29 3586.5 2646.72 3548.57 2804 3482.58C3095.48 3360.26 3342.49 3133.69 3492.69 2856C3556.47 2738.08 3602.68 2611.9 3631.42 2481C3643.36 2426.66 3654.28 2369.65 3657 2314C3658.45 2284.31 3660.74 2254.72 3662.04 2225C3662.75 2208.79 3665.01 2191.18 3662.7 2175C3659.43 2152.15 3640.05 2134.94 3617 2134.04C3594.95 2133.18 3575.35 2147.98 3569.43 2169C3565.92 2181.44 3568.78 2195.23 3567.91 2208C3565.49 2243.36 3564.7 2278.67 3561.17 2314C3540.63 2519.42 3471.14 2719.37 3359.31 2893C3274.01 3025.43 3165.01 3142.59 3039 3237.1C2730.37 3468.58 2324.3 3554.09 1949 3465.12C1535.62 3367.12 1175.35 3063.39 1023.42 2664C971.652 2527.9 943.832 2389.88 933.911 2245C931.397 2208.3 944.042 2148.2 897 2135.76C891.159 2134.21 884.994 2133.57 879 2134.43z"/>
</svg>
